<?xml version="1.0" standalone="no"?>
<!DOCTYPE svg PUBLIC "-//W3C//DTD SVG 20010904//EN"
 "http://www.w3.org/TR/2001/REC-SVG-20010904/DTD/svg10.dtd">
<svg version="1.0" xmlns="http://www.w3.org/2000/svg"
 width="38.000000pt" height="38.000000pt" viewBox="0 0 38.000000 38.000000"
 preserveAspectRatio="xMidYMid meet">

<g transform="translate(0.000000,38.000000) scale(0.100000,-0.100000)"
fill="#000000" stroke="none">
<path d="M160 338 c-1 -39 -24 -86 -34 -70 -10 16 -75 46 -83 38 -4 -3 6 -20
22 -36 29 -31 23 -42 -20 -37 -29 3 -31 -43 -6 -97 23 -47 26 -72 11 -81 -5
-3 -10 -13 -10 -21 0 -11 26 -14 150 -14 124 0 150 3 150 14 0 8 -4 18 -10 21
-15 10 -12 37 10 80 34 67 21 153 -30 193 -32 25 -50 22 -50 -9 0 -23 -13 -25
-30 -4 -7 9 -19 14 -26 11 -7 -3 -14 4 -16 16 -5 37 -28 33 -28 -4z m20 -50
c0 -51 -3 -68 -10 -58 -5 8 -10 13 -10 10 -1 -3 -3 -21 -6 -41 -4 -25 -1 -39
10 -49 22 -17 22 -64 0 -56 -9 3 -20 6 -25 6 -5 0 -9 9 -9 20 0 13 -14 27 -40
40 -47 24 -51 24 -44 5 4 -8 9 -13 13 -10 5 2 18 -9 29 -25 47 -63 158 -62
204 0 16 22 24 27 31 18 6 -9 7 -6 2 7 -5 16 -4 18 6 8 10 -10 9 -18 -7 -40
-39 -52 -71 -68 -134 -68 -62 0 -95 16 -133 66 -19 26 -32 109 -17 109 15 0
22 -20 8 -21 -7 0 2 -5 19 -10 18 -5 32 -14 30 -21 -1 -6 5 -13 13 -15 13 -4
13 -3 0 6 -8 6 -10 11 -5 11 19 0 65 113 65 158 0 12 2 22 5 22 3 0 5 -33 5
-72z m119 38 c8 -10 9 -16 1 -21 -13 -8 -30 3 -30 21 0 18 14 18 29 0z m-57
-103 c13 -24 27 -43 33 -43 5 0 3 -5 -5 -11 -13 -9 -13 -10 0 -6 8 2 14 10 12
16 -1 6 -1 11 1 11 1 0 16 4 34 9 27 8 31 7 30 -8 0 -10 -6 -18 -12 -17 -5 0
-27 -6 -47 -14 -28 -10 -38 -20 -38 -36 0 -13 -8 -24 -20 -27 -16 -4 -20 0
-20 19 0 13 6 33 12 44 10 16 10 24 0 40 -6 11 -11 43 -11 72 1 29 4 40 6 23
2 -16 13 -49 25 -72z m-159 65 c53 -30 58 -38 41 -69 -18 -35 -26 -37 -22 -5
2 17 -7 35 -26 55 -32 33 -30 39 7 19z m164 -20 c-6 -20 -6 -20 16 0 12 11 33
23 47 27 22 7 21 3 -15 -35 -22 -24 -34 -40 -27 -36 8 5 12 0 12 -13 0 -29 -5
-26 -29 15 -22 37 -29 80 -10 68 6 -3 8 -15 6 -26z m94 -51 c-13 -13 -18 -9
-27 27 -5 21 -4 27 5 22 6 -4 11 -1 12 6 0 7 5 0 11 -15 7 -20 7 -32 -1 -40z
m-143 13 c-2 -19 3 -34 12 -40 11 -7 12 -13 3 -32 -7 -13 -14 -32 -16 -43 -4
-19 -5 -19 -6 1 0 12 -8 27 -16 34 -8 7 -15 19 -15 27 0 8 7 21 15 29 8 9 15
24 15 35 0 10 3 19 6 19 3 0 4 -14 2 -30z m-78 -106 c0 -8 -4 -12 -10 -9 -5 3
-10 10 -10 16 0 5 5 9 10 9 6 0 10 -7 10 -16z m160 7 c0 -6 -4 -13 -10 -16 -5
-3 -10 1 -10 9 0 9 5 16 10 16 6 0 10 -4 10 -9z m50 -92 c0 -5 -63 -9 -140 -9
-77 0 -140 4 -140 9 0 4 63 8 140 8 77 0 140 -4 140 -8z"/>
<path d="M180 156 c7 -7 13 -7 20 0 6 6 3 10 -10 10 -13 0 -16 -4 -10 -10z"/>
</g>
</svg>
